<?xml version="1.0" standalone="no"?>
<!DOCTYPE svg PUBLIC "-//W3C//DTD SVG 20010904//EN"
 "http://www.w3.org/TR/2001/REC-SVG-20010904/DTD/svg10.dtd">
<svg version="1.0" xmlns="http://www.w3.org/2000/svg"
 width="260.000000pt" height="260.000000pt" viewBox="0 0 260.000000 260.000000"
 preserveAspectRatio="xMidYMid meet">
<metadata>
Created by potrace 1.11, written by Peter Selinger 2001-2013
</metadata>
<g transform="translate(0.000000,260.000000) scale(0.100000,-0.100000)"
fill="#000000" stroke="none">
<path d="M145 2576 c-60 -28 -97 -66 -124 -126 -20 -44 -21 -60 -21 -1150 l0
-1105 24 -50 c28 -60 66 -97 126 -124 44 -20 60 -21 1150 -21 1090 0 1106 1
1150 21 60 27 98 64 126 124 l24 50 0 1105 0 1105 -24 50 c-28 60 -66 97 -126
124 -44 20 -60 21 -1150 21 l-1105 0 -50 -24z m915 -1043 c73 -192 175 -456
226 -588 l92 -240 -76 -3 c-53 -2 -78 1 -83 10 -5 7 -31 77 -60 156 l-52 142
-251 -2 -251 -3 -55 -152 -54 -153 -78 0 c-43 0 -78 2 -78 5 0 5 412 1086 435
1143 14 32 15 32 83 32 l69 0 133 -347z m630 -178 l0 -525 280 0 280 0 0 -65
0 -65 -355 0 -355 0 0 590 0 590 75 0 75 0 0 -525z"/>
<path d="M756 1419 c-54 -149 -96 -273 -93 -275 2 -3 92 -3 200 -2 l195 3 -97
267 c-53 147 -99 269 -102 272 -3 3 -49 -116 -103 -265z"/>
</g>
</svg>
